<svg width="3463" height="744" viewBox="0 0 3463 744" fill="none" xmlns="http://www.w3.org/2000/svg">
<path d="M736.04 487.997C741.645 484.324 748.201 482.368 754.902 482.368H812.65V402.092H731.982V451.081C731.982 462.688 726.133 473.513 716.424 479.873L670.525 509.942C664.92 513.614 658.364 515.57 651.663 515.57H631.667C616.709 515.57 603.464 505.91 598.893 491.667L526.587 266.354C525.496 262.954 524.941 259.406 524.941 255.836V193.635H444.273V273.911H487.189C502.147 273.911 515.392 283.572 519.963 297.814L592.268 523.127C593.359 526.527 593.915 530.075 593.915 533.645V563.394C593.915 575.696 587.348 587.064 576.691 593.21L463.114 658.712C457.885 661.728 451.954 663.316 445.918 663.316H387.113V743.473H467.781V695.768C467.781 683.465 474.347 672.098 485.005 665.951L598.582 600.449C603.811 597.433 609.742 595.846 615.778 595.846H674.583V546.857C674.583 535.25 680.433 524.425 690.141 518.065L736.04 487.997ZM250.716 662.96L358.658 593.557C368.509 587.224 374.463 576.316 374.463 564.605V542.662C374.463 533.516 370.823 524.746 364.347 518.289L316.281 470.36C309.828 463.926 301.089 460.313 291.977 460.313H238.186V380.037H318.855V433.339C318.855 442.485 322.495 451.255 328.971 457.713L377.037 505.642C383.489 512.075 392.229 515.688 401.341 515.688H455.132V595.846H397.241C390.629 595.846 384.157 597.75 378.599 601.332L262.888 675.885V743.473C192.96 743.473 126.611 715.845 77.2074 666.755C27.804 617.664 0 551.735 0 482.25C0 412.764 27.804 346.836 77.2074 297.745C117.303 257.903 169.093 231.817 225.179 223.753C233.294 168.023 259.546 116.561 299.642 76.7189C349.045 27.6283 415.394 0 485.323 0C555.251 0 621.6 27.6283 671.003 76.7189C711.099 116.561 737.352 168.023 745.466 223.753C801.552 231.817 853.342 257.903 893.438 297.745C942.841 346.836 970.646 412.764 970.646 482.25C970.646 551.735 942.841 617.664 893.438 666.755C844.034 715.845 777.686 743.473 707.757 743.473H582.459V663.316H707.757C756.206 663.316 802.149 644.106 836.397 610.075C870.646 576.044 889.858 530.392 889.858 482.368C889.858 434.345 870.526 388.575 836.397 354.543C811.218 329.524 779.357 312.33 744.631 305.097C732.579 302.607 720.168 301.302 707.877 301.302H667.543V261.224C667.543 249.01 666.23 236.678 663.724 224.702C656.445 190.078 639.142 158.418 613.963 133.517C579.715 99.4855 533.771 80.2762 485.323 80.2762C436.874 80.2762 390.931 99.4855 356.683 133.517C331.504 158.537 314.201 190.196 306.921 224.702C304.415 236.678 303.103 249.01 303.103 261.224V301.302H262.769C250.477 301.302 238.067 302.488 226.015 305.097C191.17 312.33 159.308 329.524 134.248 354.543C100 388.575 80.6679 434.226 80.6679 482.368C80.6679 530.51 100 576.162 134.248 610.075C165.513 641.142 206.683 659.877 250.597 662.842L250.716 662.96Z" fill="url(#paint0_linear_5265_77)"/>
<path d="M1204.7 638.238V568.106L1485.43 215.231H1209.89V131.073H1611.35V201.205L1331.36 554.08H1615.06V638.238H1204.7Z" fill="url(#paint1_linear_5265_77)"/>
<path d="M1746.4 198.99C1717.51 198.99 1694.55 174.629 1694.55 147.314C1694.55 119.999 1717.51 96.376 1746.4 96.376C1774.55 96.376 1797.51 119.999 1797.51 147.314C1797.51 174.629 1774.55 198.99 1746.4 198.99ZM1700.48 638.238V256.572H1790.84V638.238H1700.48Z" fill="url(#paint2_linear_5265_77)"/>
<path d="M2075.89 647.097C1964.79 647.097 1870.72 555.556 1870.72 447.036C1870.72 338.516 1964.79 247.714 2075.89 247.714C2187 247.714 2281.07 338.516 2281.07 447.036C2281.07 555.556 2187 647.097 2075.89 647.097ZM2075.89 570.321C2138.85 570.321 2192.19 514.215 2192.19 447.036C2192.19 380.595 2138.85 324.49 2075.89 324.49C2012.19 324.49 1958.86 380.595 1958.86 447.036C1958.86 514.215 2012.19 570.321 2075.89 570.321Z" fill="url(#paint3_linear_5265_77)"/>
<path d="M2568.33 247.714C2652.03 247.714 2710.54 308.987 2710.54 395.36V638.238H2623.14V413.077C2623.14 361.401 2589.81 324.49 2542.4 324.49C2495 324.49 2455.74 356.234 2449.81 396.836V638.238H2359.45V256.572H2449.81V307.51C2473.52 272.075 2517.96 247.714 2568.33 247.714Z" fill="url(#paint4_linear_5265_77)"/>
<path d="M3199 638.238L3160.48 546.697H2914.57L2876.05 638.238H2773.09L2985.68 131.073H3088.64L3301.22 638.238H3199ZM2947.9 466.968H3127.15L3037.53 253.619L2947.9 466.968Z" fill="url(#paint5_linear_5265_77)"/>
<path d="M3411.55 198.99C3382.66 198.99 3359.7 174.629 3359.7 147.314C3359.7 119.999 3382.66 96.376 3411.55 96.376C3439.7 96.376 3462.66 119.999 3462.66 147.314C3462.66 174.629 3439.7 198.99 3411.55 198.99ZM3365.63 638.238V256.572H3455.99V638.238H3365.63Z" fill="url(#paint6_linear_5265_77)"/>
<defs>
<linearGradient id="paint0_linear_5265_77" x1="-449.935" y1="-364.202" x2="828.368" y2="750.572" gradientUnits="userSpaceOnUse">
<stop stop-color="#002AEB"/>
<stop offset="0.505" stop-color="#114FEE"/>
<stop offset="1" stop-color="#95FFA7"/>
</linearGradient>
<linearGradient id="paint1_linear_5265_77" x1="158.046" y1="-173.403" x2="773.918" y2="1513.27" gradientUnits="userSpaceOnUse">
<stop stop-color="#002AEB"/>
<stop offset="0.505" stop-color="#114FEE"/>
<stop offset="1" stop-color="#95FFA7"/>
</linearGradient>
<linearGradient id="paint2_linear_5265_77" x1="158.046" y1="-173.403" x2="773.918" y2="1513.27" gradientUnits="userSpaceOnUse">
<stop stop-color="#002AEB"/>
<stop offset="0.505" stop-color="#114FEE"/>
<stop offset="1" stop-color="#95FFA7"/>
</linearGradient>
<linearGradient id="paint3_linear_5265_77" x1="158.046" y1="-173.403" x2="773.918" y2="1513.27" gradientUnits="userSpaceOnUse">
<stop stop-color="#002AEB"/>
<stop offset="0.505" stop-color="#114FEE"/>
<stop offset="1" stop-color="#95FFA7"/>
</linearGradient>
<linearGradient id="paint4_linear_5265_77" x1="158.046" y1="-173.403" x2="773.918" y2="1513.27" gradientUnits="userSpaceOnUse">
<stop stop-color="#002AEB"/>
<stop offset="0.505" stop-color="#114FEE"/>
<stop offset="1" stop-color="#95FFA7"/>
</linearGradient>
<linearGradient id="paint5_linear_5265_77" x1="158.046" y1="-173.403" x2="773.918" y2="1513.27" gradientUnits="userSpaceOnUse">
<stop stop-color="#002AEB"/>
<stop offset="0.505" stop-color="#114FEE"/>
<stop offset="1" stop-color="#95FFA7"/>
</linearGradient>
<linearGradient id="paint6_linear_5265_77" x1="158.046" y1="-173.403" x2="773.918" y2="1513.27" gradientUnits="userSpaceOnUse">
<stop stop-color="#002AEB"/>
<stop offset="0.505" stop-color="#114FEE"/>
<stop offset="1" stop-color="#95FFA7"/>
</linearGradient>
</defs>
</svg>
